<?xml version="1.0" encoding="utf-8"?>
<!-- Svg Vector Icons : http://www.onlinewebfonts.com/icon -->
<!DOCTYPE svg PUBLIC "-//W3C//DTD SVG 1.1//EN" "http://www.w3.org/Graphics/SVG/1.1/DTD/svg11.dtd">
<svg version="1.1" xmlns="http://www.w3.org/2000/svg" xmlns:xlink="http://www.w3.org/1999/xlink" x="0px" y="0px" viewBox="0 0 1000 1000" enable-background="new 0 0 1000 1000" xml:space="preserve">
<metadata> Svg Vector Icons : http://www.onlinewebfonts.com/icon </metadata>
<g><g transform="translate(0.000000,511.000000) scale(0.100000,-0.100000)"><path d="M2610.5,4758.9C1500.1,4657.3,602.5,3936.2,242,2856.4c-115.1-343.3-143.8-527.4-141.9-941.6c1.9-287.7,9.6-391.2,42.2-548.5c105.5-492.9,303-918.6,594.5-1279.2c71-88.2,1060.6-1167.9,2199.7-2399.2l2071.2-2238.1l46,53.7c24.9,28.8,955.1,1037.5,2063.6,2240C8227.8-1054,9179-18.3,9230.8,44.9c957,1148.8,878.3,2905.5-176.4,3950.7c-540.8,535.1-1384.7,830.4-2167.1,757.5c-665.5-61.4-1208.2-297.3-1704.9-740.3l-184.1-163l-178.4,164.9c-184.1,172.6-439.2,354.8-632.9,452.6C3728.6,4699.5,3143.6,4806.9,2610.5,4758.9z M3429.4,4408c502.5-105.5,824.7-285.8,1290.7-721.1l276.2-257l255.1,232.1c295.4,268.5,425.8,366.3,650.1,485.2c360.5,191.8,690.4,276.2,1120,293.4c962.7,34.5,1772.1-400.8,2224.7-1192.9c525.5-924.4,454.5-2073.2-182.2-2920.8c-49.9-67.1-981.9-1087.4-2071.2-2268.8c-1668.5-1806.6-1984.9-2142.2-2009.9-2123c-61.4,51.8-3929.6,4246-4021.6,4359.2C523.9,844.7,320.6,1606,426.1,2311.8c42.2,295.3,109.3,504.4,247.4,782.5c391.2,792.1,1041.4,1244.7,1946.6,1359.7C2773.5,4473.2,3247.2,4446.3,3429.4,4408z"/></g></g>
</svg>